# xmcd CD database file
#
# Track frame offsets:
#	150
#	11112
#	24508
#	37419
#	49572
#	62157
#	71455
#	83815
#	93469
#	103870
#	116458
#	127226
#	140935
#	152468
#	162998
#	175418
#	187109
#	199098
#	212925
#	223114
#	234941
#	249396
#	259714
#	272895
#	282857
#	292648
#	305023
#	315865
#	329895
#	340612
#
# Disc length: 4706 seconds
#
# Submitted via: cddb-tool 0.4.7
#
#blues,classical,country,data,folk,jazz,newage,reggae,rock,soundtrack,misc
#CATEGORY=misc
# Revision: 0
# Processed by: cddbd v1.5.2PL0 Copyright (c) Steve Scherf et al.
#
DISCID=cb12601e
DTITLE=Big Jay McNeely - King of the Honkin' Sax - CDB
DYEAR=2010
DGENRE=blues
TTITLE0=Let's Do It (Deacon's Hop)
TTITLE1=I'll Never Love Again
TTITLE2=Love From The Heart (True Love)
TTITLE3=Old Black Mule
TTITLE4=Deacon Rides Again
TTITLE5=Blow. Blow. Blow.
TTITLE6=Jay Walk
TTITLE7=Night Ride
TTITLE8=Jet Fury
TTITLE9=Deacon's Express
TTITLE10=The Goof
TTITLE11=Penthouse Serenade
TTITLE12=Just Crazy
TTITLE13=Big Jay Shuffle
TTITLE14=Third Dimension (3-D) Take 3
TTITLE15=Nervous Man Nervous
TTITLE16=Rock Candy Take 2
TTITLE17=Texas Turkey Take 2
TTITLE18=She Don't Work
TTITLE19=Hot Cinders
TTITLE20=Mule Milk
TTITLE21=Ice Water
TTITLE22=Whipped Cream
TTITLE23=Beach Comber
TTITLE24=Let's Work
TTITLE25=Strip Tease Swing
TTITLE26=Hard Tack
TTITLE27=Third Dimension (3-D) Take 2
TTITLE28=Rock Candy Take 1
TTITLE29=Texas Thurkey Take 1
EXTD=JSP Records JSP4225B
EXTT0=
EXTT1=
EXTT2=
EXTT3=
EXTT4=
EXTT5=
EXTT6=
EXTT7=
EXTT8=
EXTT9=
EXTT10=
EXTT11=
EXTT12=
EXTT13=
EXTT14=
EXTT15=
EXTT16=
EXTT17=
EXTT18=
EXTT19=
EXTT20=
EXTT21=
EXTT22=
EXTT23=
EXTT24=
EXTT25=
EXTT26=
EXTT27=
EXTT28=
EXTT29=
PLAYORDER=
